<svg width="567" height="462" viewBox="0 0 567 462" fill="none" xmlns="http://www.w3.org/2000/svg">
<g filter="url(#filter0_d_2_6)">
<path d="M550.748 5H170.748L36.2482 143.5L160.748 269H352.748L388.748 305L330.748 365H216.748L286.748 291H167.748L15.7482 449H366.748L506.748 304.5L386.748 185H194.748L153.748 143L207.78 88H350.748L278.748 163H398.748L550.748 5Z" fill="url(#paint0_linear_2_6)"/>
<path d="M550.748 5H170.748L36.2482 143.5L160.748 269H352.748L388.748 305L330.748 365H216.748L286.748 291H167.748L15.7482 449H366.748L506.748 304.5L386.748 185H194.748L153.748 143L207.78 88H350.748L278.748 163H398.748L550.748 5Z" stroke="black" stroke-width="10"/>
<path d="M550.748 5H170.748L36.2482 143.5L160.748 269H352.748L388.748 305L330.748 365H216.748L286.748 291H167.748L15.7482 449H366.748L506.748 304.5L386.748 185H194.748L153.748 143L207.78 88H350.748L278.748 163H398.748L550.748 5Z" stroke="#888888" stroke-width="10"/>
</g>
<defs>
<filter id="filter0_d_2_6" x="0" y="0" width="566.496" height="462" filterUnits="userSpaceOnUse" color-interpolation-filters="sRGB">
<feFlood flood-opacity="0" result="BackgroundImageFix"/>
<feColorMatrix in="SourceAlpha" type="matrix" values="0 0 0 0 0 0 0 0 0 0 0 0 0 0 0 0 0 0 127 0" result="hardAlpha"/>
<feOffset dy="4"/>
<feGaussianBlur stdDeviation="2"/>
<feComposite in2="hardAlpha" operator="out"/>
<feColorMatrix type="matrix" values="0 0 0 0 0 0 0 0 0 0 0 0 0 0 0 0 0 0 0.25 0"/>
<feBlend mode="normal" in2="BackgroundImageFix" result="effect1_dropShadow_2_6"/>
<feBlend mode="normal" in="SourceGraphic" in2="effect1_dropShadow_2_6" result="shape"/>
</filter>
<linearGradient id="paint0_linear_2_6" x1="283.248" y1="5" x2="283.248" y2="449" gradientUnits="userSpaceOnUse">
<stop stop-color="#08E1F4"/>
<stop offset="1" stop-color="#1E39AA"/>
</linearGradient>
</defs>
</svg>
